<svg aria-hidden="true" style="position: absolute; width: 0; height: 0; overflow: hidden;" version="1.1" xmlns="http://www.w3.org/2000/svg" xmlns:xlink="http://www.w3.org/1999/xlink">
<defs>
<symbol id="icon-green-emj" viewBox="0 0 26 32">
<path fill="#46ebb0" style="fill: var(--color1, #46ebb0)" d="M26.133 19.011c0 7.173-5.816 12.989-12.99 12.989s-12.989-5.816-12.989-12.989v-19.011h25.979v19.011z"></path>
<path fill="#fff" style="fill: var(--color2, #fff)" d="M12.739 22.779c0-0.927 0.754 0 1.685 0s1.685-0.927 1.685 0c0 0.927-0.754 1.679-1.685 1.679s-1.685-0.752-1.685-1.679zM7.434 22.779c0-0.927 0.754 0 1.685 0s1.685-0.927 1.685 0c0 0.927-0.754 1.679-1.685 1.679s-1.685-0.752-1.685-1.679zM9.122 19.222c0-1.705 1.387-3.086 3.098-3.086s3.097 1.382 3.097 3.086c0 1.704-1.387-0.119-3.098-0.119s-3.098 1.823-3.098 0.119z"></path>
</symbol>
<symbol id="icon-pink-emj" viewBox="0 0 32 32">
<path fill="#f472b7" style="fill: var(--color3, #f472b7)" d="M23.504 24.262c-4.689 4.276-11.859 4.048-16.015-0.509s-3.724-11.718 0.965-15.994 11.859-4.048 16.015 0.51 3.724 11.718-0.965 15.994z"></path>
<path fill="#fff" style="fill: var(--color2, #fff)" d="M11.205 13.958c0.281 0.308 0.393-0.054 0.71-0.343s0.719-0.395 0.438-0.703-0.766-0.324-1.083-0.034c-0.317 0.289-0.347 0.773-0.065 1.081zM9.012 15.958c0.281 0.308 0.393-0.054 0.71-0.343s0.719-0.395 0.438-0.703c-0.281-0.309-0.766-0.323-1.083-0.034s-0.347 0.773-0.065 1.081zM10.863 16.893c0.549 0.602 1.496 0.632 2.115 0.067s0.676-1.51 0.127-2.112c-0.549-0.602-0.464 0.5-1.083 1.064s-1.708 0.379-1.159 0.981z"></path>
</symbol>
<symbol id="icon-yell-emj-1" viewBox="0 0 32 32">
<path fill="#fad34f" style="fill: var(--color4, #fad34f)" d="M22.467 25.045c5.228-3.687 6.561-10.795 2.978-15.876s-10.727-6.212-15.954-2.525-6.561 10.795-2.977 15.876c3.583 5.081 10.726 6.212 15.954 2.525z"></path>
<path fill="#fff" style="fill: var(--color2, #fff)" d="M14.995 10.698c0.242 0.344-0.139 0.375-0.492 0.624s-0.545 0.622-0.788 0.278c-0.243-0.344-0.152-0.824 0.201-1.073s0.836-0.174 1.079 0.171zM17.44 8.974c0.242 0.344-0.139 0.375-0.492 0.625s-0.545 0.622-0.788 0.278-0.152-0.824 0.201-1.073c0.353-0.25 0.836-0.173 1.079 0.171zM17.959 10.999c0.473 0.671 0.297 1.61-0.393 2.097s-1.634 0.338-2.107-0.333c-0.473-0.671 0.593-0.348 1.283-0.835s0.744-1.599 1.217-0.928z"></path>
</symbol>
<symbol id="icon-yell-emj-2" viewBox="0 0 32 32">
<path fill="#fad34f" style="fill: var(--color4, #fad34f)" d="M16.049 30.088c8.313 0 15.052-6.739 15.052-15.052s-6.739-15.052-15.052-15.052-15.052 6.739-15.052 15.052 6.739 15.052 15.052 15.052z"></path>
<path fill="#fff" style="fill: var(--color2, #fff)" d="M20.104 19.712c0 1.078-0.874 0-1.953 0-1.078 0-1.953 1.078-1.953 0s0.874-1.953 1.953-1.953h0c0 0 0 0 0 0 1.078 0 1.952 0.874 1.952 1.952 0 0 0 0 0 0v-0zM26.252 19.712c0 1.078-0.874 0-1.953 0s-1.953 1.078-1.953 0c0-1.078 0.874-1.953 1.953-1.953h0c0 0 0 0 0 0 1.078 0 1.952 0.874 1.952 1.952 0 0 0 0 0 0v-0zM24.296 23.849c0 1.983-1.608 3.589-3.589 3.589s-3.589-1.608-3.589-3.589c0-1.982 1.607 0.138 3.589 0.138s3.589-2.12 3.589-0.138z"></path>
</symbol>
</defs>
</svg>
